<svg xmlns="http://www.w3.org/2000/svg" viewBox="-49 141 512 512" id="solution-e-commerce"><path fill="none" d="M188.1 588.3c-6.5 0-11.8 5.3-11.8 11.8s5.3 11.8 11.8 11.8 11.8-5.3 11.8-11.8-5.3-11.8-11.8-11.8zM329.8 588.3c-6.5 0-11.8 5.3-11.8 11.8s5.3 11.8 11.8 11.8 11.8-5.3 11.8-11.8-5.3-11.8-11.8-11.8z"></path><linearGradient id="a" x1="-1" x2="455.741" y1="345.707" y2="345.707" gradientUnits="userSpaceOnUse"><stop offset="0" stop-color="#FF884B"></stop><stop offset=".35" stop-color="#FF634C"></stop><stop offset=".655" stop-color="#FE4A4F"></stop><stop offset="1" stop-color="#FE4840"></stop></linearGradient><path fill="url(#a)" d="M441.6 343c11 0 20-9 20-20s-9-20-20-20h-355c-.6 0-1.3 0-1.9.1l-24.3-63.9c-.1-.2-.1-.3-.2-.5-.1-.4-.3-.7-.5-1.1-.1-.3-.3-.5-.4-.8-.2-.3-.3-.6-.5-.9-.2-.3-.3-.5-.5-.8-.2-.3-.4-.6-.6-.8-.2-.3-.4-.5-.6-.8-.2-.2-.4-.5-.6-.7-.2-.3-.5-.5-.7-.7-.2-.2-.4-.4-.7-.6-.3-.2-.5-.5-.8-.7-.2-.2-.4-.4-.7-.5-.3-.2-.6-.4-.9-.7-.1-.1-.3-.2-.4-.3l-67.9-41.9c-9.4-5.8-21.7-2.9-27.5 6.5-5.8 9.4-2.9 21.7 6.5 27.5l62 38.4 87.4 229.9c1.3 9.8 9.7 17.3 19.8 17.3h266c11 0 20-9 20-20s-9-20-20-20H146.9l-16-42h291.6c11 0 20-9 20-20s-9-20-20-20H115.8l-16-42h341.8z"></path><linearGradient id="b" x1="-1" x2="455.741" y1="600.1" y2="600.1" gradientUnits="userSpaceOnUse"><stop offset="0" stop-color="#FF884B"></stop><stop offset=".35" stop-color="#FF634C"></stop><stop offset=".655" stop-color="#FE4A4F"></stop><stop offset="1" stop-color="#FE4840"></stop></linearGradient><path fill="url(#b)" d="M188.1 548.3c-28.6 0-51.8 23.3-51.8 51.8s23.3 51.8 51.8 51.8 51.8-23.3 51.8-51.8-23.2-51.8-51.8-51.8zm0 63.7c-6.5 0-11.8-5.3-11.8-11.8s5.3-11.8 11.8-11.8 11.8 5.3 11.8 11.8-5.3 11.8-11.8 11.8z"></path><linearGradient id="c" x1="-1" x2="455.741" y1="600.1" y2="600.1" gradientUnits="userSpaceOnUse"><stop offset="0" stop-color="#FF884B"></stop><stop offset=".35" stop-color="#FF634C"></stop><stop offset=".655" stop-color="#FE4A4F"></stop><stop offset="1" stop-color="#FE4840"></stop></linearGradient><path fill="url(#c)" d="M329.8 548.3c-28.6 0-51.8 23.3-51.8 51.8s23.3 51.8 51.8 51.8 51.8-23.3 51.8-51.8-23.2-51.8-51.8-51.8zm0 63.7c-6.5 0-11.8-5.3-11.8-11.8s5.3-11.8 11.8-11.8 11.8 5.3 11.8 11.8-5.3 11.8-11.8 11.8z"></path></svg>